<svg xmlns="http://www.w3.org/2000/svg" version="1.1" xmlns:xlink="http://www.w3.org/1999/xlink" xmlns:svgjs="http://svgjs.com/svgjs" width="1440" height="560" preserveAspectRatio="none" viewBox="0 0 1440 560"><g mask="url(&quot;#SvgjsMask1006&quot;)" fill="none"><path d="M315.86 577.5C445.57 567.62 533.93 311.97 762.68 310.81 991.44 309.65 986.09 380.81 1209.51 380.81 1432.92 380.81 1543.26 311.02 1656.33 310.81" stroke="rgba(51,121,194,0.58)" stroke-width="2"></path><path d="M190.85 611.29C336.76 575.87 382.98 190 611.51 182.62 840.04 175.24 821.85 252.62 1032.18 252.62 1242.51 252.62 1346.23 182.86 1452.84 182.62" stroke="rgba(51,121,194,0.58)" stroke-width="2"></path><path d="M413.52 628.89C595.26 615.88 726.01 262.75 1043.52 262.43 1361.03 262.11 1507.74 466.99 1673.52 469.63" stroke="rgba(51,121,194,0.58)" stroke-width="2"></path><path d="M780.6 636.89C872.5 626.09 829.41 433.29 1081.2 420.94 1332.98 408.59 1521.05 189.88 1682.39 185.74" stroke="rgba(51,121,194,0.58)" stroke-width="2"></path><path d="M75.06 564.45C246.83 515.78 288.32 46.04 553.51 34.29 818.7 22.54 792.74 104.29 1031.97 104.29 1271.19 104.29 1389.53 34.47 1510.42 34.29" stroke="rgba(51,121,194,0.58)" stroke-width="2"></path></g><defs><mask id="SvgjsMask1006"><rect width="1440" height="560" fill="#ffffff"></rect></mask></defs></svg>