<!-- Generated by IcoMoon.io -->
<svg version="1.1" xmlns="http://www.w3.org/2000/svg" width="768" height="768" viewBox="0 0 768 768">
<title></title>
<g id="icomoon-ignore">
</g>
<path fill="#000" d="M672 160c8.832 0 16.8 3.552 22.624 9.376s9.376 13.792 9.376 22.624v384c0 8.832-3.552 16.8-9.376 22.624s-13.792 9.376-22.624 9.376h-401.472l-196-224 196-224zM672 96h-416c-9.6 0-18.176 4.224-24.096 10.912l-224 256c-10.656 12.16-10.432 30.144 0 42.144l224 256c6.336 7.232 15.168 10.912 24.096 10.944h416c26.496 0 50.56-10.784 67.872-28.128s28.128-41.376 28.128-67.872v-384c0-26.496-10.784-50.56-28.128-67.872s-41.376-28.128-67.872-28.128zM361.376 310.624l73.376 73.376-73.376 73.376c-12.512 12.512-12.512 32.768 0 45.248s32.768 12.512 45.248 0l73.376-73.376 73.376 73.376c12.512 12.512 32.768 12.512 45.248 0s12.512-32.768 0-45.248l-73.376-73.376 73.376-73.376c12.512-12.512 12.512-32.768 0-45.248s-32.768-12.512-45.248 0l-73.376 73.376-73.376-73.376c-12.512-12.512-32.768-12.512-45.248 0s-12.512 32.768 0 45.248z"></path>
</svg>
