<svg width="40" height="40" viewBox="0 0 40 40" fill="none" xmlns="http://www.w3.org/2000/svg">
<path d="M33.7033 0C36.0466 0 37.9366 1.895 38.0483 4.125V40L33.5866 36.2117L31.1366 33.9817L28.4633 31.6517L29.58 35.3267H6.18327C3.84659 35.3267 1.94995 33.5517 1.94995 31.2V4.13332C1.94995 1.90332 3.84995 0.005 6.19163 0.005H33.6916L33.7033 0ZM23.5066 9.47168H23.4566L23.12 9.805C26.575 10.805 28.2466 12.3667 28.2466 12.3667C26.02 11.2534 24.0133 10.6967 22.0066 10.4717C20.5566 10.2467 19.1066 10.365 17.8816 10.4717H17.5483C16.765 10.4717 15.0983 10.805 12.865 11.6967C12.0867 12.035 11.64 12.2567 11.64 12.2567C11.64 12.2567 13.31 10.5867 16.99 9.695L16.765 9.47C16.765 9.47 13.9783 9.36332 10.97 11.5867C10.97 11.5867 7.96167 16.8267 7.96167 23.2867C7.96167 23.2867 9.62835 26.1867 14.2 26.2967C14.2 26.2967 14.8667 25.4084 15.5417 24.6267C12.975 23.8467 11.975 22.2867 11.975 22.2867C11.975 22.2867 12.1983 22.3967 12.5333 22.62H12.6333C12.6833 22.62 12.7066 22.645 12.7333 22.67V22.68C12.76 22.7067 12.7833 22.73 12.8333 22.73C13.3833 22.9567 13.9333 23.18 14.3833 23.3967C15.16 23.7334 16.1583 24.0684 17.3833 24.29C18.9333 24.515 20.71 24.6233 22.7333 24.29C23.7333 24.065 24.7333 23.845 25.7333 23.3983C26.3833 23.065 27.1833 22.7316 28.0616 22.17C28.0616 22.17 27.0616 23.73 24.3866 24.51C24.9366 25.2867 25.7116 26.1767 25.7116 26.1767C30.285 26.0767 32.0616 23.1767 32.1616 23.3C32.1616 16.85 29.1366 11.6 29.1366 11.6C26.4116 9.57668 23.8616 9.5 23.4116 9.5L23.5066 9.47168ZM23.7866 16.8267C24.9583 16.8267 25.9033 17.8267 25.9033 19.0517C25.9033 20.285 24.9533 21.285 23.7866 21.285C22.62 21.285 21.67 20.285 21.67 19.0617C21.6733 17.8284 22.625 16.8317 23.7866 16.8267ZM16.215 16.8267C17.3816 16.8267 18.325 17.8267 18.325 19.0517C18.325 20.285 17.375 21.285 16.2083 21.285C15.0416 21.285 14.0916 20.285 14.0916 19.0617C14.0916 17.8284 15.0416 16.8317 16.2149 16.8267H16.215Z" fill="url(#paint0_linear_6_69)"/>
<defs>
<linearGradient id="paint0_linear_6_69" x1="1.94995" y1="0" x2="39.6209" y2="1.53275" gradientUnits="userSpaceOnUse">
<stop stop-color="#56CCF2"/>
<stop offset="0.4375" stop-color="#12D8FA" stop-opacity="0.85"/>
<stop offset="0.895833" stop-color="#2F80ED"/>
</linearGradient>
</defs>
</svg>
