<svg xmlns="http://www.w3.org/2000/svg" version="1.1" xmlns:xlink="http://www.w3.org/1999/xlink" xmlns:svgjs="http://svgjs.com/svgjs" width="1440" height="560" preserveAspectRatio="none" viewBox="0 0 1440 560"><g mask="url(&quot;#SvgjsMask1378&quot;)" fill="none"><path d="M0 -67L58.03 -33.5L58.03 33.5L0 67L-58.03 33.5L-58.03 -33.5zM58.03 33.5L116.05 67L116.05 134L58.03 167.5L0 134L0 67zM0 134L58.03 167.5L58.03 234.5L0 268L-58.03 234.5L-58.03 167.5zM58.03 234.5L116.05 268L116.05 335L58.03 368.5L0 335L0 268zM0 335L58.03 368.5L58.03 435.5L0 469L-58.03 435.5L-58.03 368.5zM58.03 435.5L116.05 469L116.05 536L58.03 569.5L0 536L0 469zM0 536L58.03 569.5L58.03 636.5L0 670L-58.03 636.5L-58.03 569.5zM116.05 -67L174.08 -33.5L174.08 33.5L116.05 67L58.03 33.5L58.03 -33.5zM174.08 33.5L232.1 67L232.1 134L174.08 167.5L116.05 134L116.05 67zM116.05 134L174.08 167.5L174.08 234.5L116.05 268L58.03 234.5L58.03 167.5zM174.08 234.5L232.1 268L232.1 335L174.08 368.5L116.05 335L116.05 268zM116.05 335L174.08 368.5L174.08 435.5L116.05 469L58.03 435.5L58.03 368.5zM174.08 435.5L232.1 469L232.1 536L174.08 569.5L116.05 536L116.05 469zM116.05 536L174.08 569.5L174.08 636.5L116.05 670L58.03 636.5L58.03 569.5zM232.1 -67L290.13 -33.5L290.13 33.5L232.1 67L174.08 33.5L174.08 -33.5zM290.13 33.5L348.15 67L348.15 134L290.13 167.5L232.1 134L232.1 67zM232.1 134L290.13 167.5L290.13 234.5L232.1 268L174.08 234.5L174.08 167.5zM290.13 234.5L348.15 268L348.15 335L290.13 368.5L232.1 335L232.1 268zM232.1 335L290.13 368.5L290.13 435.5L232.1 469L174.08 435.5L174.08 368.5zM290.13 435.5L348.15 469L348.15 536L290.13 569.5L232.1 536L232.1 469zM232.1 536L290.13 569.5L290.13 636.5L232.1 670L174.08 636.5L174.08 569.5zM348.15 -67L406.18 -33.5L406.18 33.5L348.15 67L290.13 33.5L290.13 -33.5zM406.18 33.5L464.2 67L464.2 134L406.18 167.5L348.15 134L348.15 67zM348.15 134L406.18 167.5L406.18 234.5L348.15 268L290.13 234.5L290.13 167.5zM406.18 234.5L464.2 268L464.2 335L406.18 368.5L348.15 335L348.15 268zM348.15 335L406.18 368.5L406.18 435.5L348.15 469L290.13 435.5L290.13 368.5zM406.18 435.5L464.2 469L464.2 536L406.18 569.5L348.15 536L348.15 469zM348.15 536L406.18 569.5L406.18 636.5L348.15 670L290.13 636.5L290.13 569.5zM464.2 -67L522.23 -33.5L522.23 33.5L464.2 67L406.18 33.5L406.18 -33.5zM522.23 33.5L580.25 67L580.25 134L522.23 167.5L464.2 134L464.2 67zM464.2 134L522.23 167.5L522.23 234.5L464.2 268L406.18 234.5L406.18 167.5zM522.23 234.5L580.25 268L580.25 335L522.23 368.5L464.2 335L464.2 268zM464.2 335L522.23 368.5L522.23 435.5L464.2 469L406.18 435.5L406.18 368.5zM522.23 435.5L580.25 469L580.25 536L522.23 569.5L464.2 536L464.2 469zM464.2 536L522.23 569.5L522.23 636.5L464.2 670L406.18 636.5L406.18 569.5zM580.25 -67L638.28 -33.5L638.28 33.5L580.25 67L522.23 33.5L522.23 -33.5zM638.28 33.5L696.3 67L696.3 134L638.28 167.5L580.25 134L580.25 67zM580.25 134L638.28 167.5L638.28 234.5L580.25 268L522.23 234.5L522.23 167.5zM638.28 234.5L696.3 268L696.3 335L638.28 368.5L580.25 335L580.25 268zM580.25 335L638.28 368.5L638.28 435.5L580.25 469L522.23 435.5L522.23 368.5zM638.28 435.5L696.3 469L696.3 536L638.28 569.5L580.25 536L580.25 469zM580.25 536L638.28 569.5L638.28 636.5L580.25 670L522.23 636.5L522.23 569.5zM696.3 -67L754.33 -33.5L754.33 33.5L696.3 67L638.28 33.5L638.28 -33.5zM754.33 33.5L812.35 67L812.35 134L754.33 167.5L696.3 134L696.3 67zM696.3 134L754.33 167.5L754.33 234.5L696.3 268L638.28 234.5L638.28 167.5zM754.33 234.5L812.35 268L812.35 335L754.33 368.5L696.3 335L696.3 268zM696.3 335L754.33 368.5L754.33 435.5L696.3 469L638.28 435.5L638.28 368.5zM754.33 435.5L812.35 469L812.35 536L754.33 569.5L696.3 536L696.3 469zM696.3 536L754.33 569.5L754.33 636.5L696.3 670L638.28 636.5L638.28 569.5zM812.35 -67L870.38 -33.5L870.38 33.5L812.35 67L754.33 33.5L754.33 -33.5zM870.38 33.5L928.41 67L928.41 134L870.38 167.5L812.35 134L812.35 67zM812.35 134L870.38 167.5L870.38 234.5L812.35 268L754.33 234.5L754.33 167.5zM870.38 234.5L928.41 268L928.41 335L870.38 368.5L812.35 335L812.35 268zM812.35 335L870.38 368.5L870.38 435.5L812.35 469L754.33 435.5L754.33 368.5zM870.38 435.5L928.41 469L928.41 536L870.38 569.5L812.35 536L812.35 469zM812.35 536L870.38 569.5L870.38 636.5L812.35 670L754.33 636.5L754.33 569.5zM928.41 -67L986.43 -33.5L986.43 33.5L928.41 67L870.38 33.5L870.38 -33.5zM986.43 33.5L1044.46 67L1044.46 134L986.43 167.5L928.41 134L928.41 67zM928.41 134L986.43 167.5L986.43 234.5L928.41 268L870.38 234.5L870.38 167.5zM986.43 234.5L1044.46 268L1044.46 335L986.43 368.5L928.41 335L928.41 268zM928.41 335L986.43 368.5L986.43 435.5L928.41 469L870.38 435.5L870.38 368.5zM986.43 435.5L1044.46 469L1044.46 536L986.43 569.5L928.41 536L928.41 469zM928.41 536L986.43 569.5L986.43 636.5L928.41 670L870.38 636.5L870.38 569.5zM1044.46 -67L1102.48 -33.5L1102.48 33.5L1044.46 67L986.43 33.5L986.43 -33.5zM1102.48 33.5L1160.51 67L1160.51 134L1102.48 167.5L1044.46 134L1044.46 67zM1044.46 134L1102.48 167.5L1102.48 234.5L1044.46 268L986.43 234.5L986.43 167.5zM1102.48 234.5L1160.51 268L1160.51 335L1102.48 368.5L1044.46 335L1044.46 268zM1044.46 335L1102.48 368.5L1102.48 435.5L1044.46 469L986.43 435.5L986.43 368.5zM1102.48 435.5L1160.51 469L1160.51 536L1102.48 569.5L1044.46 536L1044.46 469zM1044.46 536L1102.48 569.5L1102.48 636.5L1044.46 670L986.43 636.5L986.43 569.5zM1160.51 -67L1218.53 -33.5L1218.53 33.5L1160.51 67L1102.48 33.5L1102.48 -33.5zM1218.53 33.5L1276.56 67L1276.56 134L1218.53 167.5L1160.51 134L1160.51 67zM1160.51 134L1218.53 167.5L1218.53 234.5L1160.51 268L1102.48 234.5L1102.48 167.5zM1218.53 234.5L1276.56 268L1276.56 335L1218.53 368.5L1160.51 335L1160.51 268zM1160.51 335L1218.53 368.5L1218.53 435.5L1160.51 469L1102.48 435.5L1102.48 368.5zM1218.53 435.5L1276.56 469L1276.56 536L1218.53 569.5L1160.51 536L1160.51 469zM1160.51 536L1218.53 569.5L1218.53 636.5L1160.51 670L1102.48 636.5L1102.48 569.5zM1276.56 -67L1334.58 -33.5L1334.58 33.5L1276.56 67L1218.53 33.5L1218.53 -33.5zM1334.58 33.5L1392.61 67L1392.61 134L1334.58 167.5L1276.56 134L1276.56 67zM1276.56 134L1334.58 167.5L1334.58 234.5L1276.56 268L1218.53 234.5L1218.53 167.5zM1334.58 234.5L1392.61 268L1392.61 335L1334.58 368.5L1276.56 335L1276.56 268zM1276.56 335L1334.58 368.5L1334.58 435.5L1276.56 469L1218.53 435.5L1218.53 368.5zM1334.58 435.5L1392.61 469L1392.61 536L1334.58 569.5L1276.56 536L1276.56 469zM1276.56 536L1334.58 569.5L1334.58 636.5L1276.56 670L1218.53 636.5L1218.53 569.5zM1392.61 -67L1450.63 -33.5L1450.63 33.5L1392.61 67L1334.58 33.5L1334.58 -33.5zM1450.63 33.5L1508.66 67L1508.66 134L1450.63 167.5L1392.61 134L1392.61 67zM1392.61 134L1450.63 167.5L1450.63 234.5L1392.61 268L1334.58 234.5L1334.58 167.5zM1450.63 234.5L1508.66 268L1508.66 335L1450.63 368.5L1392.61 335L1392.61 268zM1392.61 335L1450.63 368.5L1450.63 435.5L1392.61 469L1334.58 435.5L1334.58 368.5zM1450.63 435.5L1508.66 469L1508.66 536L1450.63 569.5L1392.61 536L1392.61 469zM1392.61 536L1450.63 569.5L1450.63 636.5L1392.61 670L1334.58 636.5L1334.58 569.5z" stroke="url(#SvgjsLinearGradient1379)" stroke-width="2"></path><path d="M0 -48L41.57 -24L41.57 24L0 48L-41.57 24L-41.57 -24zM41.57 24L83.14 48L83.14 96L41.57 120L0 96L0 48zM0 96L41.57 120L41.57 168L0 192L-41.57 168L-41.57 120zM41.57 168L83.14 192L83.14 240L41.57 264L0 240L0 192zM0 240L41.57 264L41.57 312L0 336L-41.57 312L-41.57 264zM41.57 312L83.14 336L83.14 384L41.57 408L0 384L0 336zM0 384L41.57 408L41.57 456L0 480L-41.57 456L-41.57 408zM41.57 456L83.14 480L83.14 528L41.57 552L0 528L0 480zM0 528L41.57 552L41.57 600L0 624L-41.57 600L-41.57 552zM83.14 -48L124.71 -24L124.71 24L83.14 48L41.57 24L41.57 -24zM124.71 24L166.28 48L166.28 96L124.71 120L83.14 96L83.14 48zM83.14 96L124.71 120L124.71 168L83.14 192L41.57 168L41.57 120zM124.71 168L166.28 192L166.28 240L124.71 264L83.14 240L83.14 192zM83.14 240L124.71 264L124.71 312L83.14 336L41.57 312L41.57 264zM124.71 312L166.28 336L166.28 384L124.71 408L83.14 384L83.14 336zM83.14 384L124.71 408L124.71 456L83.14 480L41.57 456L41.57 408zM124.71 456L166.28 480L166.28 528L124.71 552L83.14 528L83.14 480zM83.14 528L124.71 552L124.71 600L83.14 624L41.57 600L41.57 552zM166.28 -48L207.85 -24L207.85 24L166.28 48L124.71 24L124.71 -24zM207.85 24L249.42 48L249.42 96L207.85 120L166.28 96L166.28 48zM166.28 96L207.85 120L207.85 168L166.28 192L124.71 168L124.71 120zM207.85 168L249.42 192L249.42 240L207.85 264L166.28 240L166.28 192zM166.28 240L207.85 264L207.85 312L166.28 336L124.71 312L124.71 264zM207.85 312L249.42 336L249.42 384L207.85 408L166.28 384L166.28 336zM166.28 384L207.85 408L207.85 456L166.28 480L124.71 456L124.71 408zM207.85 456L249.42 480L249.42 528L207.85 552L166.28 528L166.28 480zM166.28 528L207.85 552L207.85 600L166.28 624L124.71 600L124.71 552zM249.42 -48L290.99 -24L290.99 24L249.42 48L207.85 24L207.85 -24zM290.99 24L332.56 48L332.56 96L290.99 120L249.42 96L249.42 48zM249.42 96L290.99 120L290.99 168L249.42 192L207.85 168L207.85 120zM290.99 168L332.56 192L332.56 240L290.99 264L249.42 240L249.42 192zM249.42 240L290.99 264L290.99 312L249.42 336L207.85 312L207.85 264zM290.99 312L332.56 336L332.56 384L290.99 408L249.42 384L249.42 336zM249.42 384L290.99 408L290.99 456L249.42 480L207.85 456L207.85 408zM290.99 456L332.56 480L332.56 528L290.99 552L249.42 528L249.42 480zM249.42 528L290.99 552L290.99 600L249.42 624L207.85 600L207.85 552zM332.56 -48L374.13 -24L374.13 24L332.56 48L290.99 24L290.99 -24zM374.13 24L415.7 48L415.7 96L374.13 120L332.56 96L332.56 48zM332.56 96L374.13 120L374.13 168L332.56 192L290.99 168L290.99 120zM374.13 168L415.7 192L415.7 240L374.13 264L332.56 240L332.56 192zM332.56 240L374.13 264L374.13 312L332.56 336L290.99 312L290.99 264zM374.13 312L415.7 336L415.7 384L374.13 408L332.56 384L332.56 336zM332.56 384L374.13 408L374.13 456L332.56 480L290.99 456L290.99 408zM374.13 456L415.7 480L415.7 528L374.13 552L332.56 528L332.56 480zM332.56 528L374.13 552L374.13 600L332.56 624L290.99 600L290.99 552zM415.7 -48L457.27 -24L457.27 24L415.7 48L374.13 24L374.13 -24zM457.27 24L498.84 48L498.84 96L457.27 120L415.7 96L415.7 48zM415.7 96L457.27 120L457.27 168L415.7 192L374.13 168L374.13 120zM457.27 168L498.84 192L498.84 240L457.27 264L415.7 240L415.7 192zM415.7 240L457.27 264L457.27 312L415.7 336L374.13 312L374.13 264zM457.27 312L498.84 336L498.84 384L457.27 408L415.7 384L415.7 336zM415.7 384L457.27 408L457.27 456L415.7 480L374.13 456L374.13 408zM457.27 456L498.84 480L498.84 528L457.27 552L415.7 528L415.7 480zM415.7 528L457.27 552L457.27 600L415.7 624L374.13 600L374.13 552zM498.84 -48L540.42 -24L540.42 24L498.84 48L457.27 24L457.27 -24zM540.42 24L581.99 48L581.99 96L540.42 120L498.84 96L498.84 48zM498.84 96L540.42 120L540.42 168L498.84 192L457.27 168L457.27 120zM540.42 168L581.99 192L581.99 240L540.42 264L498.84 240L498.84 192zM498.84 240L540.42 264L540.42 312L498.84 336L457.27 312L457.27 264zM540.42 312L581.99 336L581.99 384L540.42 408L498.84 384L498.84 336zM498.84 384L540.42 408L540.42 456L498.84 480L457.27 456L457.27 408zM540.42 456L581.99 480L581.99 528L540.42 552L498.84 528L498.84 480zM498.84 528L540.42 552L540.42 600L498.84 624L457.27 600L457.27 552zM581.99 -48L623.56 -24L623.56 24L581.99 48L540.42 24L540.42 -24zM623.56 24L665.13 48L665.13 96L623.56 120L581.99 96L581.99 48zM581.99 96L623.56 120L623.56 168L581.99 192L540.42 168L540.42 120zM623.56 168L665.13 192L665.13 240L623.56 264L581.99 240L581.99 192zM581.99 240L623.56 264L623.56 312L581.99 336L540.42 312L540.42 264zM623.56 312L665.13 336L665.13 384L623.56 408L581.99 384L581.99 336zM581.99 384L623.56 408L623.56 456L581.99 480L540.42 456L540.42 408zM623.56 456L665.13 480L665.13 528L623.56 552L581.99 528L581.99 480zM581.99 528L623.56 552L623.56 600L581.99 624L540.42 600L540.42 552zM665.13 -48L706.7 -24L706.7 24L665.13 48L623.56 24L623.56 -24zM706.7 24L748.27 48L748.27 96L706.7 120L665.13 96L665.13 48zM665.13 96L706.7 120L706.7 168L665.13 192L623.56 168L623.56 120zM706.7 168L748.27 192L748.27 240L706.7 264L665.13 240L665.13 192zM665.13 240L706.7 264L706.7 312L665.13 336L623.56 312L623.56 264zM706.7 312L748.27 336L748.27 384L706.7 408L665.13 384L665.13 336zM665.13 384L706.7 408L706.7 456L665.13 480L623.56 456L623.56 408zM706.7 456L748.27 480L748.27 528L706.7 552L665.13 528L665.13 480zM665.13 528L706.7 552L706.7 600L665.13 624L623.56 600L623.56 552zM748.27 -48L789.84 -24L789.84 24L748.27 48L706.7 24L706.7 -24zM789.84 24L831.41 48L831.41 96L789.84 120L748.27 96L748.27 48zM748.27 96L789.84 120L789.84 168L748.27 192L706.7 168L706.7 120zM789.84 168L831.41 192L831.41 240L789.84 264L748.27 240L748.27 192zM748.27 240L789.84 264L789.84 312L748.27 336L706.7 312L706.7 264zM789.84 312L831.41 336L831.41 384L789.84 408L748.27 384L748.27 336zM748.27 384L789.84 408L789.84 456L748.27 480L706.7 456L706.7 408zM789.84 456L831.41 480L831.41 528L789.84 552L748.27 528L748.27 480zM748.27 528L789.84 552L789.84 600L748.27 624L706.7 600L706.7 552zM831.41 -48L872.98 -24L872.98 24L831.41 48L789.84 24L789.84 -24zM872.98 24L914.55 48L914.55 96L872.98 120L831.41 96L831.41 48zM831.41 96L872.98 120L872.98 168L831.41 192L789.84 168L789.84 120zM872.98 168L914.55 192L914.55 240L872.98 264L831.41 240L831.41 192zM831.41 240L872.98 264L872.98 312L831.41 336L789.84 312L789.84 264zM872.98 312L914.55 336L914.55 384L872.98 408L831.41 384L831.41 336zM831.41 384L872.98 408L872.98 456L831.41 480L789.84 456L789.84 408zM872.98 456L914.55 480L914.55 528L872.98 552L831.41 528L831.41 480zM831.41 528L872.98 552L872.98 600L831.41 624L789.84 600L789.84 552zM914.55 -48L956.12 -24L956.12 24L914.55 48L872.98 24L872.98 -24zM956.12 24L997.69 48L997.69 96L956.12 120L914.55 96L914.55 48zM914.55 96L956.12 120L956.12 168L914.55 192L872.98 168L872.98 120zM956.12 168L997.69 192L997.69 240L956.12 264L914.55 240L914.55 192zM914.55 240L956.12 264L956.12 312L914.55 336L872.98 312L872.98 264zM956.12 312L997.69 336L997.69 384L956.12 408L914.55 384L914.55 336zM914.55 384L956.12 408L956.12 456L914.55 480L872.98 456L872.98 408zM956.12 456L997.69 480L997.69 528L956.12 552L914.55 528L914.55 480zM914.55 528L956.12 552L956.12 600L914.55 624L872.98 600L872.98 552zM997.69 -48L1039.26 -24L1039.26 24L997.69 48L956.12 24L956.12 -24zM1039.26 24L1080.83 48L1080.83 96L1039.26 120L997.69 96L997.69 48zM997.69 96L1039.26 120L1039.26 168L997.69 192L956.12 168L956.12 120zM1039.26 168L1080.83 192L1080.83 240L1039.26 264L997.69 240L997.69 192zM997.69 240L1039.26 264L1039.26 312L997.69 336L956.12 312L956.12 264zM1039.26 312L1080.83 336L1080.83 384L1039.26 408L997.69 384L997.69 336zM997.69 384L1039.26 408L1039.26 456L997.69 480L956.12 456L956.12 408zM1039.26 456L1080.83 480L1080.83 528L1039.26 552L997.69 528L997.69 480zM997.69 528L1039.26 552L1039.26 600L997.69 624L956.12 600L956.12 552zM1080.83 -48L1122.4 -24L1122.4 24L1080.83 48L1039.26 24L1039.26 -24zM1122.4 24L1163.97 48L1163.97 96L1122.4 120L1080.83 96L1080.83 48zM1080.83 96L1122.4 120L1122.4 168L1080.83 192L1039.26 168L1039.26 120zM1122.4 168L1163.97 192L1163.97 240L1122.4 264L1080.83 240L1080.83 192zM1080.83 240L1122.4 264L1122.4 312L1080.83 336L1039.26 312L1039.26 264zM1122.4 312L1163.97 336L1163.97 384L1122.4 408L1080.83 384L1080.83 336zM1080.83 384L1122.4 408L1122.4 456L1080.83 480L1039.26 456L1039.26 408zM1122.4 456L1163.97 480L1163.97 528L1122.4 552L1080.83 528L1080.83 480zM1080.83 528L1122.4 552L1122.4 600L1080.83 624L1039.26 600L1039.26 552zM1163.97 -48L1205.54 -24L1205.54 24L1163.97 48L1122.4 24L1122.4 -24zM1205.54 24L1247.11 48L1247.11 96L1205.54 120L1163.97 96L1163.97 48zM1163.97 96L1205.54 120L1205.54 168L1163.97 192L1122.4 168L1122.4 120zM1205.54 168L1247.11 192L1247.11 240L1205.54 264L1163.97 240L1163.97 192zM1163.97 240L1205.54 264L1205.54 312L1163.97 336L1122.4 312L1122.4 264zM1205.54 312L1247.11 336L1247.11 384L1205.54 408L1163.97 384L1163.97 336zM1163.97 384L1205.54 408L1205.54 456L1163.97 480L1122.4 456L1122.4 408zM1205.54 456L1247.11 480L1247.11 528L1205.54 552L1163.97 528L1163.97 480zM1163.97 528L1205.54 552L1205.54 600L1163.97 624L1122.4 600L1122.4 552zM1247.11 -48L1288.68 -24L1288.68 24L1247.11 48L1205.54 24L1205.54 -24zM1288.68 24L1330.25 48L1330.25 96L1288.68 120L1247.11 96L1247.11 48zM1247.11 96L1288.68 120L1288.68 168L1247.11 192L1205.54 168L1205.54 120zM1288.68 168L1330.25 192L1330.25 240L1288.68 264L1247.11 240L1247.11 192zM1247.11 240L1288.68 264L1288.68 312L1247.11 336L1205.54 312L1205.54 264zM1288.68 312L1330.25 336L1330.25 384L1288.68 408L1247.11 384L1247.11 336zM1247.11 384L1288.68 408L1288.68 456L1247.11 480L1205.54 456L1205.54 408zM1288.68 456L1330.25 480L1330.25 528L1288.68 552L1247.11 528L1247.11 480zM1247.11 528L1288.68 552L1288.68 600L1247.11 624L1205.54 600L1205.54 552zM1330.25 -48L1371.82 -24L1371.82 24L1330.25 48L1288.68 24L1288.68 -24zM1371.82 24L1413.39 48L1413.39 96L1371.82 120L1330.25 96L1330.25 48zM1330.25 96L1371.82 120L1371.82 168L1330.25 192L1288.68 168L1288.68 120zM1371.82 168L1413.39 192L1413.39 240L1371.82 264L1330.25 240L1330.25 192zM1330.25 240L1371.82 264L1371.82 312L1330.25 336L1288.68 312L1288.68 264zM1371.82 312L1413.39 336L1413.39 384L1371.82 408L1330.25 384L1330.25 336zM1330.25 384L1371.82 408L1371.82 456L1330.25 480L1288.68 456L1288.68 408zM1371.82 456L1413.39 480L1413.39 528L1371.82 552L1330.25 528L1330.25 480zM1330.25 528L1371.82 552L1371.82 600L1330.25 624L1288.68 600L1288.68 552zM1413.39 -48L1454.96 -24L1454.96 24L1413.39 48L1371.82 24L1371.82 -24zM1454.96 24L1496.53 48L1496.53 96L1454.96 120L1413.39 96L1413.39 48zM1413.39 96L1454.96 120L1454.96 168L1413.39 192L1371.82 168L1371.82 120zM1454.96 168L1496.53 192L1496.53 240L1454.96 264L1413.39 240L1413.39 192zM1413.39 240L1454.96 264L1454.96 312L1413.39 336L1371.82 312L1371.82 264zM1454.96 312L1496.53 336L1496.53 384L1454.96 408L1413.39 384L1413.39 336zM1413.39 384L1454.96 408L1454.96 456L1413.39 480L1371.82 456L1371.82 408zM1454.96 456L1496.53 480L1496.53 528L1454.96 552L1413.39 528L1413.39 480zM1413.39 528L1454.96 552L1454.96 600L1413.39 624L1371.82 600L1371.82 552z" stroke="url(#SvgjsLinearGradient1380)" stroke-width="2"></path></g><defs><mask id="SvgjsMask1378"><rect width="1440" height="560" fill="#ffffff"></rect></mask><linearGradient x1="720" y1="0" x2="720" y2="560" gradientUnits="userSpaceOnUse" id="SvgjsLinearGradient1379"><stop stop-color="rgba(47, 128, 237, 1)" offset="0"></stop><stop stop-color="rgba(47, 128, 237, 1)" offset="1"></stop></linearGradient><linearGradient x1="720" y1="0" x2="720" y2="560" gradientUnits="userSpaceOnUse" id="SvgjsLinearGradient1380"><stop stop-color="#0e2a47" offset="0"></stop><stop stop-color="rgba(86, 204, 242, 1)" offset="1"></stop></linearGradient></defs></svg>