<svg xmlns="http://www.w3.org/2000/svg" version="1.1" xmlns:xlink="http://www.w3.org/1999/xlink" xmlns:svgjs="http://svgjs.com/svgjs" width="1440" height="560" preserveAspectRatio="none" viewBox="0 0 1440 560"><g mask="url(&quot;#SvgjsMask1065&quot;)" fill="none"><rect width="1440" height="560" x="0" y="0" fill="#0e2a47"></rect><use xlink:href="#SvgjsG1072" transform="translate(0, 0)" fill="rgba(86, 204, 242, 1)"></use><use xlink:href="#SvgjsG1072" transform="translate(0, 480)" fill="rgba(86, 204, 242, 1)"></use><use xlink:href="#SvgjsG1072" transform="translate(480, 0)" fill="rgba(86, 204, 242, 1)"></use><use xlink:href="#SvgjsG1072" transform="translate(480, 480)" fill="rgba(86, 204, 242, 1)"></use><use xlink:href="#SvgjsG1072" transform="translate(960, 0)" fill="rgba(86, 204, 242, 1)"></use><use xlink:href="#SvgjsG1072" transform="translate(960, 480)" fill="rgba(86, 204, 242, 1)"></use></g><defs><mask id="SvgjsMask1065"><rect width="1440" height="560" fill="#ffffff"></rect></mask><g id="SvgjsG1067"><path d="M16 11.289H0C0.001 12.447 0.884 12.984 1.594 12.987H14.406c0.847-0.003 1.59-0.669 1.594-1.698zM12.96 3.12H3.413v6.263c0.002 0.851 0.734 1.523 1.525 1.525h6.194c0.893-0.002 1.502-0.752 1.498-1.525v-0.519c1.768-0.002 3.05-1.328 3.05-2.876 0.001-1.575-1.256-2.869-2.72-2.868zM12.63 7.668V4.298h0.33c1.211-0.002 1.599 1.143 1.593 1.698 0.001 0.896-0.662 1.755-1.923 1.672z"></path></g><g id="SvgjsG1069"><path d="M6.22 14.34L0.096 8.212l2.288-2.288 6.124 6.124z"></path><path d="M16.126 4.416L7.47 13.072l-2.44-2.44L13.686 1.976z"></path></g><g id="SvgjsG1071"><path d="M3.394 6.906c0.819-0.002 1.483-0.667 1.487-1.488-0.004-0.821-0.669-1.486-1.487-1.487a1.485 1.485 0 0 0-1.487 1.487c-0.001 0.82 0.664 1.485 1.487 1.487z"></path><path d="M4.981 5.765v1.286H2.7c-1.103 0.008-1.105 1.425 0 1.423h2.993c0.438 0.002 0.711-0.351 0.712-0.748V5.765c0-1.072-1.421-1.072-1.424 0z m1.615-0.766H12.536c0.875-0.002 1.388 0.559 1.386 1.313v2.144H6.596V4.999z"></path><path d="M1.624 3.758c-0.002-1.17-1.625-1.17-1.624 0V13.137h1.66V10.719H14.287v2.4h1.615V5.875c0.004-1.234-1.637-1.234-1.633 0v2.891H1.624V3.758z"></path></g><g id="SvgjsG1068"><path d="M3.898 0s0.232 4.58 4.246 4.192S8.597 0.364 3.898 0m4.203 14.894a2.324 2.324 0 0 1-1.902 0.977c-0.64 0-1.267-0.3-1.689-0.721-0.864-0.943-1.985-3.051-1.986-3.052C1.897 10.822 1.56 9.837 1.56 8.839c0-2.126 1.72-3.968 3.848-3.968 1.05 0 1.996 0.42 2.692 1.099a3.835 3.835 0 0 1 2.69-1.099c2.129 0 3.848 1.842 3.849 3.967 0 0.997-0.334 1.983-0.964 3.259 0 0-1.12 2.108-1.984 3.051-0.423 0.422-1.049 0.722-1.689 0.722a2.321 2.321 0 0 1-1.899-0.977" fill-rule="evenodd"></path></g><g id="SvgjsG1070"><path d="M10.596 3.917a0.64 0.64 0 0 0-0.639 0.641c0 0.354 0.287 0.64 0.639 0.64a0.639 0.639 0 0 0 0.639-0.64 0.639 0.639 0 0 0-0.639-0.641z m-0.151 5.25a0.642 0.642 0 0 0 0.643 0.641c0.352 0 0.638-0.286 0.637-0.64a0.639 0.639 0 0 0-0.637-0.641 0.641 0.641 0 0 0-0.642 0.641z m-4.678-5.945a0.641 0.641 0 0 0 0 1.282 0.64 0.64 0 0 0 0.642-0.64 0.641 0.641 0 0 0-0.642-0.642z"></path><path d="M8.659 0C5.904 0 3.363 2.068 2.835 4.347c-0.119 0.507-0.25 1.83-0.25 1.829L1.316 9.37A0.488 0.488 0 0 0 1.28 9.561a0.491 0.491 0 0 0 0.491 0.489h0.814v1.697c0 1.323 1.072 2.395 2.394 2.395h0.951V16H12.408V10.847c1.413-1.111 2.32-2.838 2.32-4.775C14.728 2.718 12.01 0 8.659 0z m-4.583 7.387c-0.372 0-0.675-0.304-0.675-0.679a0.677 0.677 0 0 1 0.675-0.677c0.375 0 0.68 0.303 0.68 0.677a0.68 0.68 0 0 1-0.68 0.679z m8.959-0.918l-0.631 0.632-0.77-0.543c-0.148 0.077-0.304 0.139-0.467 0.18l-0.142 0.838h0.294l0.079 0.448c0.031 0.008 0.062 0.013 0.092 0.024 0.079 0.029 0.152 0.067 0.22 0.11l0.355-0.25 0.292 0.291-0.262 0.371c0.056 0.1 0.101 0.206 0.125 0.318l0.429 0.074v0.412l-0.446 0.076c-0.009 0.032-0.013 0.063-0.024 0.094a1.147 1.147 0 0 1-0.112 0.223l0.251 0.353-0.292 0.291-0.369-0.262a1.149 1.149 0 0 1-0.318 0.126l-0.075 0.429H10.851l-0.074-0.448c-0.032-0.009-0.064-0.013-0.096-0.025a1.174 1.174 0 0 1-0.221-0.11l-0.356 0.252L9.815 10.08l0.262-0.37a1.151 1.151 0 0 1-0.125-0.319l-0.431-0.074v-0.411l0.45-0.077c0.008-0.032 0.013-0.063 0.025-0.094 0.029-0.079 0.066-0.152 0.109-0.22l-0.251-0.356 0.291-0.291 0.371 0.262a1.174 1.174 0 0 1 0.317-0.125l0.064-0.372h-0.776L9.96 6.704c-0.035-0.011-0.07-0.02-0.104-0.034a2.221 2.221 0 0 1-0.352-0.168l-0.744 0.524-0.63-0.632 0.542-0.767a2.184 2.184 0 0 1-0.181-0.469l-0.894-0.154V4.27l-0.449 0.078c-0.007 0.022-0.009 0.044-0.017 0.065a1.402 1.402 0 0 1-0.109 0.223l0.345 0.489-0.416 0.414-0.506-0.357a1.438 1.438 0 0 1-0.294 0.116l-0.102 0.586-0.584 0-0.106-0.611c-0.02-0.007-0.042-0.009-0.062-0.017a1.43 1.43 0 0 1-0.226-0.11l-0.49 0.345-0.414-0.415 0.359-0.508a1.485 1.485 0 0 1-0.112-0.291L3.824 4.176V3.589l0.608-0.105c0.007-0.022 0.012-0.043 0.02-0.063 0.029-0.08 0.068-0.154 0.109-0.225l-0.345-0.488 0.413-0.415 0.508 0.358a1.439 1.439 0 0 1 0.295-0.117l0.102-0.586h0.584L6.224 2.56c0.021 0.007 0.043 0.008 0.063 0.016 0.08 0.03 0.154 0.069 0.225 0.11l0.489-0.344 0.415 0.414-0.359 0.507a1.397 1.397 0 0 1 0.115 0.293l0.586 0.101v0.427l0.768-0.132c0.011-0.035 0.02-0.07 0.033-0.105 0.046-0.126 0.104-0.243 0.17-0.355l-0.528-0.74 0.634-0.633 0.77 0.544a2.192 2.192 0 0 1 0.468-0.181l0.151-0.894h0.894l0.162 0.928c0.035 0.01 0.069 0.02 0.104 0.033 0.124 0.046 0.241 0.104 0.352 0.168l0.743-0.523 0.629 0.631-0.542 0.77c0.077 0.148 0.138 0.304 0.18 0.466l0.895 0.154v0.894l-0.929 0.16c-0.011 0.035-0.02 0.07-0.032 0.104-0.046 0.125-0.104 0.242-0.17 0.353l0.525 0.743z"></path></g><g id="SvgjsG1066"><path d="M2.115 12.192a1.05 1.05 0 1 1 0-2.1 1.05 1.05 0 0 1 0 2.1zM0 16V13.942c0-0.742 0.61-1.344 1.352-1.344h1.45c0.743 0 1.406 0.603 1.406 1.345V16H0z m13-3.897a1.051 1.051 0 0 0 1.05-1.05 1.05 1.05 0 0 0-2.099 0 1.05 1.05 0 0 0 1.051 1.049zM15.114 16V13.942c0-0.742-0.61-1.344-1.353-1.344h-1.448c-0.744 0-1.406 0.603-1.407 1.345V16h4.208z"></path><path d="M6.494 11.133a1.062 1.053 0 1 0 2.124 0 1.062 1.053 0 1 0-2.124 0"></path><path d="M4.998 16l0.836-2.277c0.335-1.163 1.31-1.128 1.309-1.127h0.828s0.974-0.036 1.309 1.127L10.116 16h-5.118z m2.558-7.25v-2.491l-0.414-0.414v2.49H0.885V0.414h6.257V4.483l0.414 0.414V0H0.474v8.75h7.082z m5.44-4.548a1.049 1.049 0 0 1-1.048-1.048c0-0.579 0.47-1.049 1.048-1.049a1.047 1.047 0 0 1 1.047 1.048 1.046 1.046 0 0 1-1.048 1.048z"></path><path d="M8.329 6.958a0.441 0.441 0 0 0 0.442 0.442h1.454c0.165 0 0.382-0.066 0.474-0.205 0.314-0.464 0.643-0.953 0.741-1.1v2.749h3.661V6.025c0-0.737-0.576-1.401-1.256-1.4 0.002 0.346 0 0.118 0-0.015H12.082a1.343 1.343 0 0 0-1.119 0.599l-0.871 1.313-1.32-0.001L6.907 4.656a0.179 0.179 0 0 0-0.254 0 0.18 0.18 0 0 0 0 0.254l1.774 1.775c-0.038 0.063-0.098 0.192-0.097 0.273z"></path></g><g id="SvgjsG1072"><use xlink:href="#SvgjsG1066" transform="translate(0, 0) scale(2)" fill="rgba(86, 204, 242, 1)"></use><use xlink:href="#SvgjsG1067" transform="translate(0, 48) scale(2)" fill="rgba(86, 204, 242, 1)"></use><use xlink:href="#SvgjsG1066" transform="translate(0, 96) scale(2)" fill="rgba(86, 204, 242, 1)"></use><use xlink:href="#SvgjsG1068" transform="translate(0, 144) scale(2)" fill="rgba(86, 204, 242, 1)"></use><use xlink:href="#SvgjsG1068" transform="translate(0, 192) scale(2)" fill="rgba(86, 204, 242, 1)"></use><use xlink:href="#SvgjsG1066" transform="translate(0, 240) scale(2)" fill="rgba(86, 204, 242, 1)"></use><use xlink:href="#SvgjsG1069" transform="translate(0, 288) scale(2)" fill="rgba(86, 204, 242, 1)"></use><use xlink:href="#SvgjsG1070" transform="translate(0, 336) scale(2)" fill="rgba(86, 204, 242, 1)"></use><use xlink:href="#SvgjsG1066" transform="translate(0, 384) scale(2)" fill="rgba(86, 204, 242, 1)"></use><use xlink:href="#SvgjsG1069" transform="translate(0, 432) scale(2)" fill="rgba(86, 204, 242, 1)"></use><use xlink:href="#SvgjsG1070" transform="translate(48, 0) scale(2)" fill="rgba(86, 204, 242, 1)"></use><use xlink:href="#SvgjsG1066" transform="translate(48, 48) scale(2)" fill="rgba(86, 204, 242, 1)"></use><use xlink:href="#SvgjsG1070" transform="translate(48, 96) scale(2)" fill="rgba(86, 204, 242, 1)"></use><use xlink:href="#SvgjsG1068" transform="translate(48, 144) scale(2)" fill="rgba(86, 204, 242, 1)"></use><use xlink:href="#SvgjsG1069" transform="translate(48, 192) scale(2)" fill="rgba(86, 204, 242, 1)"></use><use xlink:href="#SvgjsG1066" transform="translate(48, 240) scale(2)" fill="rgba(86, 204, 242, 1)"></use><use xlink:href="#SvgjsG1067" transform="translate(48, 288) scale(2)" fill="rgba(86, 204, 242, 1)"></use><use xlink:href="#SvgjsG1071" transform="translate(48, 336) scale(2)" fill="rgba(86, 204, 242, 1)"></use><use xlink:href="#SvgjsG1071" transform="translate(48, 384) scale(2)" fill="rgba(86, 204, 242, 1)"></use><use xlink:href="#SvgjsG1069" transform="translate(48, 432) scale(2)" fill="rgba(86, 204, 242, 1)"></use><use xlink:href="#SvgjsG1070" transform="translate(96, 0) scale(2)" fill="rgba(86, 204, 242, 1)"></use><use xlink:href="#SvgjsG1070" transform="translate(96, 48) scale(2)" fill="rgba(86, 204, 242, 1)"></use><use xlink:href="#SvgjsG1068" transform="translate(96, 96) scale(2)" fill="rgba(86, 204, 242, 1)"></use><use xlink:href="#SvgjsG1068" transform="translate(96, 144) scale(2)" fill="rgba(86, 204, 242, 1)"></use><use xlink:href="#SvgjsG1067" transform="translate(96, 192) scale(2)" fill="rgba(86, 204, 242, 1)"></use><use xlink:href="#SvgjsG1069" transform="translate(96, 240) scale(2)" fill="rgba(86, 204, 242, 1)"></use><use xlink:href="#SvgjsG1069" transform="translate(96, 288) scale(2)" fill="rgba(86, 204, 242, 1)"></use><use xlink:href="#SvgjsG1071" transform="translate(96, 336) scale(2)" fill="rgba(86, 204, 242, 1)"></use><use xlink:href="#SvgjsG1067" transform="translate(96, 384) scale(2)" fill="rgba(86, 204, 242, 1)"></use><use xlink:href="#SvgjsG1069" transform="translate(96, 432) scale(2)" fill="rgba(86, 204, 242, 1)"></use><use xlink:href="#SvgjsG1068" transform="translate(144, 0) scale(2)" fill="rgba(86, 204, 242, 1)"></use><use xlink:href="#SvgjsG1066" transform="translate(144, 48) scale(2)" fill="rgba(86, 204, 242, 1)"></use><use xlink:href="#SvgjsG1070" transform="translate(144, 96) scale(2)" fill="rgba(86, 204, 242, 1)"></use><use xlink:href="#SvgjsG1069" transform="translate(144, 144) scale(2)" fill="rgba(86, 204, 242, 1)"></use><use xlink:href="#SvgjsG1068" transform="translate(144, 192) scale(2)" fill="rgba(86, 204, 242, 1)"></use><use xlink:href="#SvgjsG1068" transform="translate(144, 240) scale(2)" fill="rgba(86, 204, 242, 1)"></use><use xlink:href="#SvgjsG1071" transform="translate(144, 288) scale(2)" fill="rgba(86, 204, 242, 1)"></use><use xlink:href="#SvgjsG1068" transform="translate(144, 336) scale(2)" fill="rgba(86, 204, 242, 1)"></use><use xlink:href="#SvgjsG1066" transform="translate(144, 384) scale(2)" fill="rgba(86, 204, 242, 1)"></use><use xlink:href="#SvgjsG1066" transform="translate(144, 432) scale(2)" fill="rgba(86, 204, 242, 1)"></use><use xlink:href="#SvgjsG1069" transform="translate(192, 0) scale(2)" fill="rgba(86, 204, 242, 1)"></use><use xlink:href="#SvgjsG1066" transform="translate(192, 48) scale(2)" fill="rgba(86, 204, 242, 1)"></use><use xlink:href="#SvgjsG1070" transform="translate(192, 96) scale(2)" fill="rgba(86, 204, 242, 1)"></use><use xlink:href="#SvgjsG1070" transform="translate(192, 144) scale(2)" fill="rgba(86, 204, 242, 1)"></use><use xlink:href="#SvgjsG1067" transform="translate(192, 192) scale(2)" fill="rgba(86, 204, 242, 1)"></use><use xlink:href="#SvgjsG1069" transform="translate(192, 240) scale(2)" fill="rgba(86, 204, 242, 1)"></use><use xlink:href="#SvgjsG1070" transform="translate(192, 288) scale(2)" fill="rgba(86, 204, 242, 1)"></use><use xlink:href="#SvgjsG1070" transform="translate(192, 336) scale(2)" fill="rgba(86, 204, 242, 1)"></use><use xlink:href="#SvgjsG1068" transform="translate(192, 384) scale(2)" fill="rgba(86, 204, 242, 1)"></use><use xlink:href="#SvgjsG1066" transform="translate(192, 432) scale(2)" fill="rgba(86, 204, 242, 1)"></use><use xlink:href="#SvgjsG1070" transform="translate(240, 0) scale(2)" fill="rgba(86, 204, 242, 1)"></use><use xlink:href="#SvgjsG1071" transform="translate(240, 48) scale(2)" fill="rgba(86, 204, 242, 1)"></use><use xlink:href="#SvgjsG1071" transform="translate(240, 96) scale(2)" fill="rgba(86, 204, 242, 1)"></use><use xlink:href="#SvgjsG1066" transform="translate(240, 144) scale(2)" fill="rgba(86, 204, 242, 1)"></use><use xlink:href="#SvgjsG1070" transform="translate(240, 192) scale(2)" fill="rgba(86, 204, 242, 1)"></use><use xlink:href="#SvgjsG1071" transform="translate(240, 240) scale(2)" fill="rgba(86, 204, 242, 1)"></use><use xlink:href="#SvgjsG1068" transform="translate(240, 288) scale(2)" fill="rgba(86, 204, 242, 1)"></use><use xlink:href="#SvgjsG1066" transform="translate(240, 336) scale(2)" fill="rgba(86, 204, 242, 1)"></use><use xlink:href="#SvgjsG1070" transform="translate(240, 384) scale(2)" fill="rgba(86, 204, 242, 1)"></use><use xlink:href="#SvgjsG1071" transform="translate(240, 432) scale(2)" fill="rgba(86, 204, 242, 1)"></use><use xlink:href="#SvgjsG1069" transform="translate(288, 0) scale(2)" fill="rgba(86, 204, 242, 1)"></use><use xlink:href="#SvgjsG1067" transform="translate(288, 48) scale(2)" fill="rgba(86, 204, 242, 1)"></use><use xlink:href="#SvgjsG1071" transform="translate(288, 96) scale(2)" fill="rgba(86, 204, 242, 1)"></use><use xlink:href="#SvgjsG1069" transform="translate(288, 144) scale(2)" fill="rgba(86, 204, 242, 1)"></use><use xlink:href="#SvgjsG1068" transform="translate(288, 192) scale(2)" fill="rgba(86, 204, 242, 1)"></use><use xlink:href="#SvgjsG1066" transform="translate(288, 240) scale(2)" fill="rgba(86, 204, 242, 1)"></use><use xlink:href="#SvgjsG1070" transform="translate(288, 288) scale(2)" fill="rgba(86, 204, 242, 1)"></use><use xlink:href="#SvgjsG1069" transform="translate(288, 336) scale(2)" fill="rgba(86, 204, 242, 1)"></use><use xlink:href="#SvgjsG1069" transform="translate(288, 384) scale(2)" fill="rgba(86, 204, 242, 1)"></use><use xlink:href="#SvgjsG1071" transform="translate(288, 432) scale(2)" fill="rgba(86, 204, 242, 1)"></use><use xlink:href="#SvgjsG1068" transform="translate(336, 0) scale(2)" fill="rgba(86, 204, 242, 1)"></use><use xlink:href="#SvgjsG1071" transform="translate(336, 48) scale(2)" fill="rgba(86, 204, 242, 1)"></use><use xlink:href="#SvgjsG1068" transform="translate(336, 96) scale(2)" fill="rgba(86, 204, 242, 1)"></use><use xlink:href="#SvgjsG1066" transform="translate(336, 144) scale(2)" fill="rgba(86, 204, 242, 1)"></use><use xlink:href="#SvgjsG1071" transform="translate(336, 192) scale(2)" fill="rgba(86, 204, 242, 1)"></use><use xlink:href="#SvgjsG1066" transform="translate(336, 240) scale(2)" fill="rgba(86, 204, 242, 1)"></use><use xlink:href="#SvgjsG1070" transform="translate(336, 288) scale(2)" fill="rgba(86, 204, 242, 1)"></use><use xlink:href="#SvgjsG1069" transform="translate(336, 336) scale(2)" fill="rgba(86, 204, 242, 1)"></use><use xlink:href="#SvgjsG1069" transform="translate(336, 384) scale(2)" fill="rgba(86, 204, 242, 1)"></use><use xlink:href="#SvgjsG1066" transform="translate(336, 432) scale(2)" fill="rgba(86, 204, 242, 1)"></use><use xlink:href="#SvgjsG1070" transform="translate(384, 0) scale(2)" fill="rgba(86, 204, 242, 1)"></use><use xlink:href="#SvgjsG1070" transform="translate(384, 48) scale(2)" fill="rgba(86, 204, 242, 1)"></use><use xlink:href="#SvgjsG1066" transform="translate(384, 96) scale(2)" fill="rgba(86, 204, 242, 1)"></use><use xlink:href="#SvgjsG1070" transform="translate(384, 144) scale(2)" fill="rgba(86, 204, 242, 1)"></use><use xlink:href="#SvgjsG1068" transform="translate(384, 192) scale(2)" fill="rgba(86, 204, 242, 1)"></use><use xlink:href="#SvgjsG1066" transform="translate(384, 240) scale(2)" fill="rgba(86, 204, 242, 1)"></use><use xlink:href="#SvgjsG1070" transform="translate(384, 288) scale(2)" fill="rgba(86, 204, 242, 1)"></use><use xlink:href="#SvgjsG1067" transform="translate(384, 336) scale(2)" fill="rgba(86, 204, 242, 1)"></use><use xlink:href="#SvgjsG1066" transform="translate(384, 384) scale(2)" fill="rgba(86, 204, 242, 1)"></use><use xlink:href="#SvgjsG1066" transform="translate(384, 432) scale(2)" fill="rgba(86, 204, 242, 1)"></use><use xlink:href="#SvgjsG1071" transform="translate(432, 0) scale(2)" fill="rgba(86, 204, 242, 1)"></use><use xlink:href="#SvgjsG1071" transform="translate(432, 48) scale(2)" fill="rgba(86, 204, 242, 1)"></use><use xlink:href="#SvgjsG1066" transform="translate(432, 96) scale(2)" fill="rgba(86, 204, 242, 1)"></use><use xlink:href="#SvgjsG1067" transform="translate(432, 144) scale(2)" fill="rgba(86, 204, 242, 1)"></use><use xlink:href="#SvgjsG1070" transform="translate(432, 192) scale(2)" fill="rgba(86, 204, 242, 1)"></use><use xlink:href="#SvgjsG1070" transform="translate(432, 240) scale(2)" fill="rgba(86, 204, 242, 1)"></use><use xlink:href="#SvgjsG1066" transform="translate(432, 288) scale(2)" fill="rgba(86, 204, 242, 1)"></use><use xlink:href="#SvgjsG1070" transform="translate(432, 336) scale(2)" fill="rgba(86, 204, 242, 1)"></use><use xlink:href="#SvgjsG1068" transform="translate(432, 384) scale(2)" fill="rgba(86, 204, 242, 1)"></use><use xlink:href="#SvgjsG1070" transform="translate(432, 432) scale(2)" fill="rgba(86, 204, 242, 1)"></use></g></defs></svg>