<svg width="200" height="100" viewBox="0 0 200 100" fill="none" xmlns="http://www.w3.org/2000/svg">
<path d="M36.9437 73.632C35.0557 73.632 33.4877 73.328 32.2397 72.72C31.0237 72.112 30.0637 71.2 29.3597 69.984C28.6557 68.8 28.1597 67.36 27.8717 65.664C27.5837 63.936 27.4397 61.952 27.4397 59.712C27.4397 58.048 27.2157 56.768 26.7677 55.872C26.3197 54.944 25.6477 54.192 24.7517 53.616L24.4157 53.472C23.6157 52.96 23.2157 52.352 23.2157 51.648V50.688C23.2157 49.984 23.6157 49.376 24.4157 48.864L24.7997 48.672C25.6957 48.064 26.3517 47.328 26.7677 46.464C27.2157 45.568 27.4397 44.288 27.4397 42.624C27.4397 40.384 27.5837 38.416 27.8717 36.72C28.1597 34.992 28.6557 33.536 29.3597 32.352C30.0637 31.168 31.0237 30.272 32.2397 29.664C33.4877 29.056 35.0557 28.752 36.9437 28.752H37.1837C37.5037 28.752 37.7597 28.848 37.9517 29.04C38.1437 29.232 38.2397 29.488 38.2397 29.808V31.584C38.2397 31.904 38.1437 32.16 37.9517 32.352C37.7597 32.544 37.5197 32.64 37.2317 32.64H36.9917C35.4557 32.672 34.3037 33.072 33.5357 33.84C32.7997 34.576 32.3037 35.728 32.0477 37.296C31.8237 38.864 31.7117 40.944 31.7117 43.536C31.7117 45.456 31.4077 47.04 30.7997 48.288C30.1917 49.536 29.2957 50.496 28.1117 51.168C28.9117 51.584 29.5677 52.16 30.0797 52.896C30.6237 53.6 31.0237 54.448 31.2797 55.44C31.5677 56.432 31.7117 57.552 31.7117 58.8C31.7117 61.36 31.8237 63.44 32.0477 65.04C32.3037 66.64 32.7997 67.808 33.5357 68.544C34.3037 69.28 35.4557 69.68 36.9917 69.744H37.2317C37.5197 69.744 37.7597 69.84 37.9517 70.032C38.1437 70.224 38.2397 70.48 38.2397 70.8V72.576C38.2397 72.896 38.1437 73.152 37.9517 73.344C37.7597 73.536 37.5037 73.632 37.1837 73.632H36.9437ZM61.6236 34.32C66.5836 34.32 70.4236 35.696 73.1436 38.448C75.8636 41.168 77.2236 45.072 77.2236 50.16C77.2236 55.216 75.8636 59.12 73.1436 61.872C70.4236 64.624 66.5836 66 61.6236 66H49.3836V34.32H61.6236ZM61.2876 60.72C64.2956 60.72 66.5516 59.824 68.0556 58.032C69.5916 56.208 70.3596 53.584 70.3596 50.16C70.3596 46.736 69.5916 44.128 68.0556 42.336C66.5516 40.512 64.2956 39.6 61.2876 39.6H56.0076V60.72H61.2876ZM101.024 33.84C103.904 33.84 106.432 34.336 108.608 35.328C110.784 36.32 112.64 37.792 114.176 39.744L110.48 44.016C109.168 42.352 107.728 41.136 106.16 40.368C104.624 39.568 102.832 39.168 100.784 39.168C99.4401 39.168 98.3201 39.344 97.4241 39.696C96.5601 40.048 95.9201 40.512 95.5041 41.088C95.1201 41.664 94.9281 42.304 94.9281 43.008C94.9281 43.872 95.2641 44.608 95.9361 45.216C96.6081 45.792 97.7601 46.272 99.3921 46.656L105.296 48C108.432 48.704 110.672 49.76 112.016 51.168C113.392 52.544 114.08 54.336 114.08 56.544C114.08 58.624 113.536 60.416 112.448 61.92C111.36 63.392 109.84 64.528 107.888 65.328C105.936 66.096 103.696 66.48 101.168 66.48C98.9601 66.48 96.9281 66.224 95.0721 65.712C93.2481 65.168 91.6161 64.432 90.1761 63.504C88.7361 62.576 87.5361 61.504 86.5761 60.288L90.3201 55.824C91.0561 56.848 91.9681 57.76 93.0561 58.56C94.1441 59.36 95.3761 60 96.7521 60.48C98.1601 60.928 99.6321 61.152 101.168 61.152C102.48 61.152 103.584 61.008 104.48 60.72C105.408 60.4 106.096 59.968 106.544 59.424C107.024 58.848 107.264 58.16 107.264 57.36C107.264 56.528 106.976 55.824 106.4 55.248C105.856 54.64 104.832 54.176 103.328 53.856L96.8961 52.416C95.0401 51.968 93.4401 51.392 92.0961 50.688C90.7841 49.952 89.7761 49.024 89.0721 47.904C88.4001 46.752 88.0641 45.392 88.0641 43.824C88.0641 41.936 88.5761 40.24 89.6001 38.736C90.6241 37.232 92.0961 36.048 94.0161 35.184C95.9681 34.288 98.3041 33.84 101.024 33.84ZM153.227 57.264C152.619 59.312 151.659 61.024 150.347 62.4C149.035 63.776 147.483 64.8 145.691 65.472C143.899 66.144 141.931 66.48 139.787 66.48C136.651 66.48 133.931 65.824 131.627 64.512C129.355 63.2 127.595 61.328 126.347 58.896C125.131 56.464 124.523 53.552 124.523 50.16C124.523 46.768 125.131 43.856 126.347 41.424C127.595 38.992 129.355 37.12 131.627 35.808C133.931 34.496 136.619 33.84 139.691 33.84C141.867 33.84 143.835 34.144 145.595 34.752C147.355 35.328 148.843 36.224 150.059 37.44C151.307 38.656 152.219 40.192 152.795 42.048L146.795 44.592C146.251 42.672 145.419 41.312 144.299 40.512C143.179 39.68 141.739 39.264 139.979 39.264C138.251 39.264 136.731 39.68 135.419 40.512C134.139 41.344 133.147 42.576 132.443 44.208C131.739 45.808 131.387 47.792 131.387 50.16C131.387 52.496 131.707 54.48 132.347 56.112C133.019 57.744 133.995 58.976 135.275 59.808C136.555 60.64 138.123 61.056 139.979 61.056C141.707 61.056 143.195 60.592 144.443 59.664C145.723 58.736 146.619 57.328 147.131 55.44L153.227 57.264ZM163.048 28.752C164.936 28.752 166.488 29.056 167.704 29.664C168.952 30.272 169.928 31.168 170.632 32.352C171.336 33.536 171.832 34.992 172.12 36.72C172.44 38.448 172.6 40.432 172.6 42.672C172.6 44.336 172.808 45.616 173.224 46.512C173.672 47.408 174.344 48.144 175.24 48.72L175.576 48.912C176.376 49.424 176.776 50.032 176.776 50.736V51.696C176.776 52.4 176.376 52.992 175.576 53.472L175.192 53.712C174.296 54.288 173.64 55.024 173.224 55.92C172.808 56.816 172.6 58.096 172.6 59.76C172.6 62 172.44 63.984 172.12 65.712C171.832 67.408 171.336 68.832 170.632 69.984C169.928 71.168 168.952 72.064 167.704 72.672C166.488 73.312 164.952 73.632 163.096 73.632H162.808C162.488 73.632 162.232 73.536 162.04 73.344C161.848 73.152 161.752 72.896 161.752 72.576V70.8C161.752 70.48 161.848 70.224 162.04 70.032C162.232 69.84 162.488 69.744 162.808 69.744H163C164.568 69.68 165.72 69.28 166.456 68.544C167.224 67.808 167.72 66.656 167.944 65.088C168.2 63.488 168.328 61.408 168.328 58.848C168.328 56.896 168.616 55.296 169.192 54.048C169.8 52.8 170.696 51.856 171.88 51.216C171.112 50.736 170.456 50.144 169.912 49.44C169.4 48.736 169 47.904 168.712 46.944C168.456 45.952 168.328 44.832 168.328 43.584C168.328 40.992 168.2 38.912 167.944 37.344C167.72 35.744 167.24 34.576 166.504 33.84C165.768 33.072 164.616 32.672 163.048 32.64H162.808C162.488 32.64 162.232 32.544 162.04 32.352C161.848 32.16 161.752 31.904 161.752 31.584V29.808C161.752 29.488 161.848 29.232 162.04 29.04C162.232 28.848 162.488 28.752 162.808 28.752H163.048Z" fill="#FCFCFC"/>
</svg>
