<svg width="40" height="40" viewBox="0 0 40 40" fill="none" xmlns="http://www.w3.org/2000/svg">
<g clip-path="url(#clip0_6_63)">
<path d="M40 8.84375C38.5312 9.5 36.9453 9.9375 35.2891 10.1328C36.9844 9.11719 38.2812 7.50781 38.8984 5.59375C37.3125 6.53125 35.5547 7.21875 33.6875 7.58594C32.1875 5.99219 30.0547 5 27.6953 5C23.1641 5 19.4922 8.67188 19.4922 13.2031C19.4922 13.8438 19.5625 14.4688 19.7031 15.0703C12.8828 14.7266 6.83594 11.4609 2.78906 6.49219C2.08594 7.70312 1.67969 9.11719 1.67969 10.6172C1.67969 13.4609 3.125 15.9766 5.32812 17.4453C3.98437 17.4062 2.71875 17.0312 1.60938 16.4219C1.60938 16.4531 1.60938 16.4922 1.60938 16.5234C1.60938 20.5 4.4375 23.8203 8.19531 24.5703C7.50781 24.7578 6.78125 24.8594 6.03125 24.8594C5.5 24.8594 4.99219 24.8047 4.48438 24.7109C5.53125 27.9688 8.5625 30.3438 12.1484 30.4141C9.33594 32.6172 5.80469 33.9297 1.95312 33.9297C1.28906 33.9297 0.640625 33.8906 -0.0078125 33.8125C3.63281 36.1484 7.94531 37.5 12.5781 37.5C27.6719 37.5 35.9297 24.9922 35.9297 14.1484C35.9297 13.7891 35.9219 13.4375 35.9062 13.0859C37.5078 11.9375 38.8984 10.4922 40 8.84375Z" fill="url(#paint0_linear_6_63)"/>
</g>
<defs>
<linearGradient id="paint0_linear_6_63" x1="-0.0078125" y1="5" x2="41.6836" y2="7.31392" gradientUnits="userSpaceOnUse">
<stop stop-color="#56CCF2"/>
<stop offset="0.4375" stop-color="#12D8FA" stop-opacity="0.85"/>
<stop offset="0.895833" stop-color="#2F80ED"/>
</linearGradient>
<clipPath id="clip0_6_63">
<rect width="40" height="40" fill="white"/>
</clipPath>
</defs>
</svg>
