<!-- Generated by IcoMoon.io -->
<svg version="1.1" xmlns="http://www.w3.org/2000/svg" width="768" height="768" viewBox="0 0 768 768">
<title></title>
<g id="icomoon-ignore">
</g>
<path fill="#56CCF2" d="M640 480v128c0 8.832-3.552 16.8-9.376 22.624s-13.792 9.376-22.624 9.376h-448c-8.832 0-16.8-3.552-22.624-9.376s-9.376-13.792-9.376-22.624v-128c0-17.664-14.336-32-32-32s-32 14.336-32 32v128c0 26.496 10.784 50.56 28.128 67.872s41.376 28.128 67.872 28.128h448c26.496 0 50.56-10.784 67.872-28.128s28.128-41.376 28.128-67.872v-128c0-17.664-14.336-32-32-32s-32 14.336-32 32zM352 173.248v306.752c0 17.664 14.336 32 32 32s32-14.336 32-32v-306.752l105.376 105.376c12.512 12.512 32.768 12.512 45.248 0s12.512-32.768 0-45.248l-160-160c-2.944-2.944-6.464-5.312-10.368-6.944-7.84-3.232-16.672-3.232-24.512 0-3.776 1.568-7.296 3.872-10.368 6.944l-160 160c-12.512 12.512-12.512 32.768 0 45.248s32.768 12.512 45.248 0z"></path>
</svg>
