<svg width="40" height="40" viewBox="0 0 40 40" fill="none" xmlns="http://www.w3.org/2000/svg">
<g clip-path="url(#clip0_6_66)">
<path d="M34.1016 5.8125C30.3594 2.0625 25.3828 0 20.0781 0C9.15625 0 0.265625 8.89062 0.265625 19.8203C0.265625 23.3125 1.17969 26.7266 2.91406 29.7266L0.101562 40L10.6094 37.2422C13.5078 38.8203 16.7656 39.6562 20.0781 39.6562H20.0859C31.0078 39.6562 39.9062 30.7656 39.9062 19.8359C39.9062 14.5391 37.8438 9.5625 34.1016 5.8125ZM20.0859 36.3125C17.125 36.3125 14.2266 35.5156 11.6953 34.0156L11.0938 33.6562L4.85938 35.2891L6.52344 29.2109L6.13281 28.5859C4.47656 25.9688 3.60938 22.9375 3.60938 19.8203C3.60938 10.7344 11 3.34375 20.0938 3.34375C24.4922 3.34375 28.6328 5.0625 31.7422 8.17188C34.8516 11.2891 36.5625 15.4219 36.5625 19.8281C36.5547 28.9219 29.1641 36.3125 20.0859 36.3125ZM29.1172 23.9688C28.625 23.7187 26.1875 22.5234 25.7344 22.3594C25.2812 22.1953 24.9531 22.1094 24.6172 22.6094C24.2891 23.1016 23.3359 24.2187 23.0469 24.5547C22.7578 24.8828 22.4688 24.9297 21.9766 24.6797C21.4844 24.4297 19.8828 23.9062 17.9922 22.2188C16.5234 20.9062 15.5234 19.2812 15.2344 18.7891C14.9453 18.2969 15.2031 18.0234 15.4531 17.7812C15.6797 17.5625 15.9453 17.2031 16.1953 16.9141C16.4453 16.625 16.5234 16.4219 16.6875 16.0859C16.8516 15.7578 16.7734 15.4688 16.6484 15.2188C16.5234 14.9688 15.5312 12.5312 15.125 11.5391C14.7266 10.5703 14.3125 10.7031 14.0078 10.6875C13.7188 10.6719 13.3906 10.6719 13.0625 10.6719C12.7344 10.6719 12.1953 10.7969 11.7422 11.2891C11.2891 11.7812 10.0078 12.9844 10.0078 15.4219C10.0078 17.8594 11.7812 20.2109 12.0312 20.5469C12.2812 20.875 15.5234 25.8828 20.4922 28.0234C21.6719 28.5312 22.5938 28.8359 23.3125 29.0703C24.5 29.4453 25.5781 29.3906 26.4297 29.2656C27.3828 29.125 29.3594 28.0703 29.7734 26.9141C30.1875 25.7578 30.1875 24.7656 30.0625 24.5625C29.9453 24.3438 29.6172 24.2188 29.1172 23.9688Z" fill="url(#paint0_linear_6_66)"/>
</g>
<defs>
<linearGradient id="paint0_linear_6_66" x1="0.101562" y1="0" x2="41.6255" y2="1.863" gradientUnits="userSpaceOnUse">
<stop stop-color="#56CCF2"/>
<stop offset="0.4375" stop-color="#12D8FA" stop-opacity="0.85"/>
<stop offset="0.895833" stop-color="#2F80ED"/>
</linearGradient>
<clipPath id="clip0_6_66">
<rect width="40" height="40" fill="white"/>
</clipPath>
</defs>
</svg>
